<mxfile host="app.diagrams.net" modified="2023-06-04T10:25:39.028Z" agent="Mozilla/5.0 (Windows NT 10.0; Win64; x64) AppleWebKit/537.36 (KHTML, like Gecko) Chrome/114.0.0.0 Safari/537.36" etag="w-VyiKrCbcVVTEjjjDWB" version="21.3.7" type="device">
  <diagram name="PÃ¡gina-1" id="4TXw-wBPyi2u_5u_mfDX">
    <mxGraphModel dx="1434" dy="796" grid="1" gridSize="10" guides="1" tooltips="1" connect="1" arrows="1" fold="1" page="1" pageScale="1" pageWidth="827" pageHeight="1169" math="0" shadow="0">
      <root>
        <mxCell id="0" />
        <mxCell id="1" parent="0" />
        <mxCell id="IESTpAJCC-_nkowkKjmr-1" value="" style="ellipse;whiteSpace=wrap;html=1;aspect=fixed;fillColor=#dae8fc;strokeColor=#6c8ebf;" parent="1" vertex="1">
          <mxGeometry x="120" y="160" width="40" height="40" as="geometry" />
        </mxCell>
        <mxCell id="IESTpAJCC-_nkowkKjmr-2" value="" style="ellipse;whiteSpace=wrap;html=1;aspect=fixed;fillColor=#d5e8d4;strokeColor=#82b366;" parent="1" vertex="1">
          <mxGeometry x="120" y="210" width="40" height="40" as="geometry" />
        </mxCell>
        <mxCell id="IESTpAJCC-_nkowkKjmr-3" value="" style="ellipse;whiteSpace=wrap;html=1;aspect=fixed;fillColor=#dae8fc;strokeColor=#6c8ebf;" parent="1" vertex="1">
          <mxGeometry x="120" y="270" width="40" height="40" as="geometry" />
        </mxCell>
        <mxCell id="IESTpAJCC-_nkowkKjmr-4" value="" style="ellipse;whiteSpace=wrap;html=1;aspect=fixed;fillColor=#dae8fc;strokeColor=#6c8ebf;" parent="1" vertex="1">
          <mxGeometry x="120" y="330" width="40" height="40" as="geometry" />
        </mxCell>
        <mxCell id="IESTpAJCC-_nkowkKjmr-6" value="..." style="text;html=1;strokeColor=none;fillColor=none;align=center;verticalAlign=middle;whiteSpace=wrap;rounded=0;fontSize=26;" parent="1" vertex="1">
          <mxGeometry x="110" y="370" width="60" height="30" as="geometry" />
        </mxCell>
        <mxCell id="IESTpAJCC-_nkowkKjmr-7" value="" style="ellipse;whiteSpace=wrap;html=1;aspect=fixed;fillColor=#d5e8d4;strokeColor=#82b366;" parent="1" vertex="1">
          <mxGeometry x="120" y="410" width="40" height="40" as="geometry" />
        </mxCell>
        <mxCell id="IESTpAJCC-_nkowkKjmr-8" value="" style="shape=curlyBracket;whiteSpace=wrap;html=1;rounded=1;flipH=1;labelPosition=right;verticalLabelPosition=middle;align=left;verticalAlign=middle;" parent="1" vertex="1">
          <mxGeometry x="169" y="165" width="30" height="280" as="geometry" />
        </mxCell>
        <mxCell id="IESTpAJCC-_nkowkKjmr-9" value="Dataloader&lt;br&gt;Class A" style="shape=cylinder3;whiteSpace=wrap;html=1;boundedLbl=1;backgroundOutline=1;size=15;fillColor=#dae8fc;strokeColor=#6c8ebf;" parent="1" vertex="1">
          <mxGeometry x="219" y="265" width="100" height="80" as="geometry" />
        </mxCell>
        <mxCell id="IESTpAJCC-_nkowkKjmr-10" value="Dataloader&lt;br&gt;Class B" style="shape=cylinder3;whiteSpace=wrap;html=1;boundedLbl=1;backgroundOutline=1;size=15;fillColor=#d5e8d4;strokeColor=#82b366;" parent="1" vertex="1">
          <mxGeometry x="219" y="360" width="100" height="80" as="geometry" />
        </mxCell>
        <mxCell id="IESTpAJCC-_nkowkKjmr-11" value="" style="shape=curlyBracket;whiteSpace=wrap;html=1;rounded=1;flipH=1;labelPosition=right;verticalLabelPosition=middle;align=left;verticalAlign=middle;" parent="1" vertex="1">
          <mxGeometry x="329" y="165" width="30" height="280" as="geometry" />
        </mxCell>
        <mxCell id="IESTpAJCC-_nkowkKjmr-12" value="Batch" style="swimlane;whiteSpace=wrap;html=1;" parent="1" vertex="1">
          <mxGeometry x="380" y="170" width="210" height="270" as="geometry" />
        </mxCell>
        <mxCell id="IESTpAJCC-_nkowkKjmr-13" value="&lt;span style=&quot;font-weight: normal;&quot;&gt;Random&lt;/span&gt;" style="swimlane;horizontal=0;whiteSpace=wrap;html=1;startSize=23;fillColor=#f5f5f5;fontColor=#333333;strokeColor=#666666;" parent="IESTpAJCC-_nkowkKjmr-12" vertex="1">
          <mxGeometry x="10" y="30" width="190" height="70" as="geometry" />
        </mxCell>
        <mxCell id="IESTpAJCC-_nkowkKjmr-22" value="" style="ellipse;whiteSpace=wrap;html=1;aspect=fixed;fillColor=#f5f5f5;fontColor=#333333;strokeColor=#666666;" parent="IESTpAJCC-_nkowkKjmr-13" vertex="1">
          <mxGeometry x="70" y="20" width="30" height="30" as="geometry" />
        </mxCell>
        <mxCell id="IESTpAJCC-_nkowkKjmr-23" value="" style="ellipse;whiteSpace=wrap;html=1;aspect=fixed;fillColor=#f5f5f5;fontColor=#333333;strokeColor=#666666;" parent="IESTpAJCC-_nkowkKjmr-13" vertex="1">
          <mxGeometry x="110" y="20" width="30" height="30" as="geometry" />
        </mxCell>
        <mxCell id="IESTpAJCC-_nkowkKjmr-24" value="" style="ellipse;whiteSpace=wrap;html=1;aspect=fixed;fillColor=#f5f5f5;fontColor=#333333;strokeColor=#666666;" parent="IESTpAJCC-_nkowkKjmr-13" vertex="1">
          <mxGeometry x="30" y="20" width="30" height="30" as="geometry" />
        </mxCell>
        <mxCell id="tBATIGKN36AbElmi9dlA-1" value="" style="ellipse;whiteSpace=wrap;html=1;aspect=fixed;fillColor=#f5f5f5;fontColor=#333333;strokeColor=#666666;" vertex="1" parent="IESTpAJCC-_nkowkKjmr-13">
          <mxGeometry x="150" y="20" width="30" height="30" as="geometry" />
        </mxCell>
        <mxCell id="IESTpAJCC-_nkowkKjmr-29" value="&lt;span style=&quot;font-weight: normal;&quot;&gt;Class B&lt;/span&gt;" style="swimlane;horizontal=0;whiteSpace=wrap;html=1;startSize=23;fillColor=#d5e8d4;strokeColor=#82b366;" parent="IESTpAJCC-_nkowkKjmr-12" vertex="1">
          <mxGeometry x="10" y="190" width="190" height="70" as="geometry" />
        </mxCell>
        <mxCell id="IESTpAJCC-_nkowkKjmr-30" value="" style="ellipse;whiteSpace=wrap;html=1;aspect=fixed;fillColor=#d5e8d4;strokeColor=#82b366;" parent="IESTpAJCC-_nkowkKjmr-29" vertex="1">
          <mxGeometry x="70" y="20" width="30" height="30" as="geometry" />
        </mxCell>
        <mxCell id="IESTpAJCC-_nkowkKjmr-31" value="" style="ellipse;whiteSpace=wrap;html=1;aspect=fixed;fillColor=#d5e8d4;strokeColor=#82b366;" parent="IESTpAJCC-_nkowkKjmr-29" vertex="1">
          <mxGeometry x="110" y="20" width="30" height="30" as="geometry" />
        </mxCell>
        <mxCell id="IESTpAJCC-_nkowkKjmr-32" value="" style="ellipse;whiteSpace=wrap;html=1;aspect=fixed;fillColor=#d5e8d4;strokeColor=#82b366;" parent="IESTpAJCC-_nkowkKjmr-29" vertex="1">
          <mxGeometry x="30" y="20" width="30" height="30" as="geometry" />
        </mxCell>
        <mxCell id="tBATIGKN36AbElmi9dlA-3" value="" style="ellipse;whiteSpace=wrap;html=1;aspect=fixed;fillColor=#d5e8d4;strokeColor=#82b366;" vertex="1" parent="IESTpAJCC-_nkowkKjmr-29">
          <mxGeometry x="150" y="20" width="30" height="30" as="geometry" />
        </mxCell>
        <mxCell id="IESTpAJCC-_nkowkKjmr-25" value="&lt;span style=&quot;font-weight: normal;&quot;&gt;Class A&lt;/span&gt;" style="swimlane;horizontal=0;whiteSpace=wrap;html=1;startSize=23;fillColor=#dae8fc;strokeColor=#6c8ebf;" parent="1" vertex="1">
          <mxGeometry x="390" y="279" width="190" height="70" as="geometry" />
        </mxCell>
        <mxCell id="IESTpAJCC-_nkowkKjmr-26" value="" style="ellipse;whiteSpace=wrap;html=1;aspect=fixed;fillColor=#dae8fc;strokeColor=#6c8ebf;" parent="IESTpAJCC-_nkowkKjmr-25" vertex="1">
          <mxGeometry x="70" y="20" width="30" height="30" as="geometry" />
        </mxCell>
        <mxCell id="IESTpAJCC-_nkowkKjmr-27" value="" style="ellipse;whiteSpace=wrap;html=1;aspect=fixed;fillColor=#dae8fc;strokeColor=#6c8ebf;" parent="IESTpAJCC-_nkowkKjmr-25" vertex="1">
          <mxGeometry x="110" y="20" width="30" height="30" as="geometry" />
        </mxCell>
        <mxCell id="IESTpAJCC-_nkowkKjmr-28" value="" style="ellipse;whiteSpace=wrap;html=1;aspect=fixed;fillColor=#dae8fc;strokeColor=#6c8ebf;" parent="IESTpAJCC-_nkowkKjmr-25" vertex="1">
          <mxGeometry x="30" y="20" width="30" height="30" as="geometry" />
        </mxCell>
        <mxCell id="tBATIGKN36AbElmi9dlA-2" value="" style="ellipse;whiteSpace=wrap;html=1;aspect=fixed;fillColor=#dae8fc;strokeColor=#6c8ebf;" vertex="1" parent="IESTpAJCC-_nkowkKjmr-25">
          <mxGeometry x="150" y="20" width="30" height="30" as="geometry" />
        </mxCell>
        <mxCell id="IESTpAJCC-_nkowkKjmr-34" value="Standard&lt;br&gt;Dataloader" style="shape=cylinder3;whiteSpace=wrap;html=1;boundedLbl=1;backgroundOutline=1;size=15;fillColor=#f5f5f5;strokeColor=#666666;fontColor=#333333;" parent="1" vertex="1">
          <mxGeometry x="219" y="170" width="100" height="80" as="geometry" />
        </mxCell>
      </root>
    </mxGraphModel>
  </diagram>
</mxfile>
